<svg id="visual" viewBox="0 0 960 120" width="960" height="120" xmlns="http://www.w3.org/2000/svg" xmlns:xlink="http://www.w3.org/1999/xlink" version="1.1"><path d="M0 6L87 11L175 6L262 9L349 7L436 7L524 7L611 11L698 7L785 9L873 6L960 8L960 0L873 0L785 0L698 0L611 0L524 0L436 0L349 0L262 0L175 0L87 0L0 0Z" fill="#038373"></path><path d="M0 12L87 14L175 15L262 19L349 15L436 13L524 17L611 19L698 17L785 18L873 15L960 14L960 6L873 4L785 7L698 5L611 9L524 5L436 5L349 5L262 7L175 4L87 9L0 4Z" fill="#008b77"></path><path d="M0 17L87 24L175 20L262 25L349 23L436 25L524 29L611 29L698 30L785 29L873 23L960 19L960 12L873 13L785 16L698 15L611 17L524 15L436 11L349 13L262 17L175 13L87 12L0 10Z" fill="#00937b"></path><path d="M0 31L87 50L175 43L262 47L349 44L436 62L524 59L611 50L698 53L785 43L873 41L960 31L960 17L873 21L785 27L698 28L611 27L524 27L436 23L349 21L262 23L175 18L87 22L0 15Z" fill="#009b7f"></path><path d="M0 47L87 62L175 61L262 60L349 50L436 69L524 66L611 65L698 63L785 56L873 47L960 48L960 29L873 39L785 41L698 51L611 48L524 57L436 60L349 42L262 45L175 41L87 48L0 29Z" fill="#00a382"></path><path d="M0 63L87 74L175 83L262 80L349 66L436 77L524 75L611 80L698 79L785 73L873 66L960 69L960 46L873 45L785 54L698 61L611 63L524 64L436 67L349 48L262 58L175 59L87 60L0 45Z" fill="#00ab85"></path><path d="M0 99L87 105L175 102L262 103L349 98L436 98L524 99L611 98L698 103L785 97L873 101L960 98L960 67L873 64L785 71L698 77L611 78L524 73L436 75L349 64L262 78L175 81L87 72L0 61Z" fill="#00b388"></path><path d="M0 104L87 109L175 110L262 108L349 104L436 102L524 108L611 108L698 108L785 102L873 110L960 109L960 96L873 99L785 95L698 101L611 96L524 97L436 96L349 96L262 101L175 100L87 103L0 97Z" fill="#00bc8a"></path><path d="M0 109L87 113L175 114L262 114L349 111L436 108L524 115L611 110L698 113L785 110L873 114L960 114L960 107L873 108L785 100L698 106L611 106L524 106L436 100L349 102L262 106L175 108L87 107L0 102Z" fill="#00c48c"></path><path d="M0 121L87 121L175 121L262 121L349 121L436 121L524 121L611 121L698 121L785 121L873 121L960 121L960 112L873 112L785 108L698 111L611 108L524 113L436 106L349 109L262 112L175 112L87 111L0 107Z" fill="#00cc8e"></path></svg>