<svg id="visual" viewBox="0 0 900 600" width="900" height="600" xmlns="http://www.w3.org/2000/svg" xmlns:xlink="http://www.w3.org/1999/xlink" version="1.1"><path d="M0 73L13.7 73C27.3 73 54.7 73 82 68C109.3 63 136.7 53 163.8 58C191 63 218 83 245.2 89C272.3 95 299.7 87 327 83C354.3 79 381.7 79 409 72C436.3 65 463.7 51 491 45C518.3 39 545.7 41 573 46C600.3 51 627.7 59 654.8 62C682 65 709 63 736.2 59C763.3 55 790.7 49 818 48C845.3 47 872.7 51 886.3 53L900 55L900 0L886.3 0C872.7 0 845.3 0 818 0C790.7 0 763.3 0 736.2 0C709 0 682 0 654.8 0C627.7 0 600.3 0 573 0C545.7 0 518.3 0 491 0C463.7 0 436.3 0 409 0C381.7 0 354.3 0 327 0C299.7 0 272.3 0 245.2 0C218 0 191 0 163.8 0C136.7 0 109.3 0 82 0C54.7 0 27.3 0 13.7 0L0 0Z" fill="#6198ff"></path><path d="M0 241L13.7 243C27.3 245 54.7 249 82 233C109.3 217 136.7 181 163.8 173C191 165 218 185 245.2 192C272.3 199 299.7 193 327 218C354.3 243 381.7 299 409 294C436.3 289 463.7 223 491 203C518.3 183 545.7 209 573 225C600.3 241 627.7 247 654.8 257C682 267 709 281 736.2 268C763.3 255 790.7 215 818 204C845.3 193 872.7 211 886.3 220L900 229L900 53L886.3 51C872.7 49 845.3 45 818 46C790.7 47 763.3 53 736.2 57C709 61 682 63 654.8 60C627.7 57 600.3 49 573 44C545.7 39 518.3 37 491 43C463.7 49 436.3 63 409 70C381.7 77 354.3 77 327 81C299.7 85 272.3 93 245.2 87C218 81 191 61 163.8 56C136.7 51 109.3 61 82 66C54.7 71 27.3 71 13.7 71L0 71Z" fill="#3c80ff"></path><path d="M0 367L13.7 369C27.3 371 54.7 375 82 366C109.3 357 136.7 335 163.8 330C191 325 218 337 245.2 343C272.3 349 299.7 349 327 366C354.3 383 381.7 417 409 397C436.3 377 463.7 303 491 278C518.3 253 545.7 277 573 308C600.3 339 627.7 377 654.8 386C682 395 709 375 736.2 358C763.3 341 790.7 327 818 320C845.3 313 872.7 313 886.3 313L900 313L900 227L886.3 218C872.7 209 845.3 191 818 202C790.7 213 763.3 253 736.2 266C709 279 682 265 654.8 255C627.7 245 600.3 239 573 223C545.7 207 518.3 181 491 201C463.7 221 436.3 287 409 292C381.7 297 354.3 241 327 216C299.7 191 272.3 197 245.2 190C218 183 191 163 163.8 171C136.7 179 109.3 215 82 231C54.7 247 27.3 243 13.7 241L0 239Z" fill="#0066ff"></path><path d="M0 499L13.7 509C27.3 519 54.7 539 82 549C109.3 559 136.7 559 163.8 556C191 553 218 547 245.2 546C272.3 545 299.7 549 327 550C354.3 551 381.7 549 409 542C436.3 535 463.7 523 491 515C518.3 507 545.7 503 573 507C600.3 511 627.7 523 654.8 528C682 533 709 531 736.2 520C763.3 509 790.7 489 818 486C845.3 483 872.7 497 886.3 504L900 511L900 311L886.3 311C872.7 311 845.3 311 818 318C790.7 325 763.3 339 736.2 356C709 373 682 393 654.8 384C627.7 375 600.3 337 573 306C545.7 275 518.3 251 491 276C463.7 301 436.3 375 409 395C381.7 415 354.3 381 327 364C299.7 347 272.3 347 245.2 341C218 335 191 323 163.8 328C136.7 333 109.3 355 82 364C54.7 373 27.3 369 13.7 367L0 365Z" fill="#0059dd"></path><path d="M0 601L13.7 601C27.3 601 54.7 601 82 601C109.3 601 136.7 601 163.8 601C191 601 218 601 245.2 601C272.3 601 299.7 601 327 601C354.3 601 381.7 601 409 601C436.3 601 463.7 601 491 601C518.3 601 545.7 601 573 601C600.3 601 627.7 601 654.8 601C682 601 709 601 736.2 601C763.3 601 790.7 601 818 601C845.3 601 872.7 601 886.3 601L900 601L900 509L886.3 502C872.7 495 845.3 481 818 484C790.7 487 763.3 507 736.2 518C709 529 682 531 654.8 526C627.7 521 600.3 509 573 505C545.7 501 518.3 505 491 513C463.7 521 436.3 533 409 540C381.7 547 354.3 549 327 548C299.7 547 272.3 543 245.2 544C218 545 191 551 163.8 554C136.7 557 109.3 557 82 547C54.7 537 27.3 517 13.7 507L0 497Z" fill="#004cbb"></path></svg>